<svg width="24" height="24" viewBox="0 0 24 24" fill="none" xmlns="http://www.w3.org/2000/svg">
<path d="M12.8661 3L22.3921 19.5C22.4799 19.652 22.5261 19.8245 22.5261 20C22.5261 20.1755 22.4799 20.348 22.3921 20.5C22.3043 20.652 22.1781 20.7782 22.0261 20.866C21.8741 20.9538 21.7016 21 21.5261 21H2.4741C2.29856 21 2.12612 20.9538 1.9741 20.866C1.82209 20.7782 1.69585 20.652 1.60809 20.5C1.52032 20.348 1.47412 20.1755 1.47412 20C1.47412 19.8245 1.52033 19.652 1.6081 19.5L11.1341 3C11.2219 2.84799 11.3481 2.72177 11.5001 2.63401C11.6521 2.54625 11.8246 2.50005 12.0001 2.50005C12.1756 2.50005 12.3481 2.54625 12.5001 2.63401C12.6521 2.72177 12.7783 2.84799 12.8661 3V3ZM4.2061 19H19.7941L12.0001 5.5L4.2061 19V19ZM11.0001 16H13.0001V18H11.0001V16ZM11.0001 9H13.0001V14H11.0001V9Z" fill="#E0A100"/>
</svg>
